<?xml version="1.0" standalone="no"?>
<!DOCTYPE svg PUBLIC "-//W3C//DTD SVG 20010904//EN"
 "http://www.w3.org/TR/2001/REC-SVG-20010904/DTD/svg10.dtd">
<svg version="1.0" xmlns="http://www.w3.org/2000/svg"
 width="700.000000pt" height="700.000000pt" viewBox="0 0 700.000000 700.000000"
 preserveAspectRatio="xMidYMid meet">
<metadata>
Created by potrace 1.14, written by Peter Selinger 2001-2017
</metadata>
<g transform="translate(0.000000,700.000000) scale(0.100000,-0.100000)"
fill="#000000" stroke="none">
<path d="M1155 6993 c-211 -28 -420 -107 -595 -227 -96 -65 -261 -230 -327
-326 -100 -147 -170 -311 -210 -492 -17 -79 -18 -198 -18 -2448 0 -2250 1
-2369 18 -2448 116 -528 501 -913 1027 -1028 82 -18 178 -19 2450 -19 2250 0
2369 1 2448 18 529 117 912 500 1029 1029 17 79 18 198 18 2448 0 2250 -1
2369 -18 2448 -115 522 -480 893 -1007 1025 l-85 21 -2350 2 c-1292 1 -2363
-1 -2380 -3z m2245 -1183 c349 -451 639 -819 644 -820 5 0 96 34 203 75 106
41 202 75 213 75 27 0 38 -20 115 -203 67 -161 72 -187 36 -207 -14 -7 -1135
-443 -1760 -684 -107 -41 -113 -42 -133 -18 -25 29 -150 348 -146 373 3 20 27
33 187 95 101 39 190 75 197 80 11 7 -10 201 -110 1024 -69 558 -122 1018
-120 1022 3 5 13 8 22 8 10 -1 263 -318 652 -820z m2454 -421 c147 -68 212
-249 143 -392 -107 -218 -418 -221 -528 -5 -30 59 -37 160 -15 226 29 88 118
169 211 193 46 12 140 2 189 -22z m590 -583 c73 -36 146 -109 183 -183 25 -52
28 -68 28 -158 0 -89 -3 -106 -28 -157 -115 -234 -420 -286 -602 -103 -112
111 -143 276 -80 414 47 100 104 156 204 198 48 20 69 23 147 20 74 -2 100 -8
148 -31z m-1197 -360 c2 -2 -80 -216 -182 -476 -102 -260 -185 -479 -185 -487
0 -7 6 -16 13 -19 8 -3 156 -15 330 -28 174 -12 319 -25 322 -28 11 -10 -123
-228 -228 -373 -86 -118 -186 -235 -304 -355 -62 -63 -111 -116 -109 -117 1
-2 90 -12 197 -23 107 -11 208 -22 224 -25 26 -4 32 0 45 28 12 25 22 33 48
35 22 2 41 -3 54 -15 18 -16 21 -16 31 -2 20 27 55 32 84 13 31 -20 106 -22
128 -4 21 18 62 16 85 -5 19 -17 23 -13 147 101 375 348 605 503 714 479 44
-10 105 -68 124 -118 34 -92 46 -183 52 -397 9 -349 -22 -665 -96 -985 -76
-327 -148 -429 -292 -412 -103 12 -199 93 -309 259 -74 111 -210 383 -210 419
0 54 67 87 120 59 11 -6 44 -63 75 -127 102 -215 225 -397 299 -443 42 -25 50
-22 76 30 69 135 144 539 171 917 21 307 0 643 -42 643 -46 0 -231 -135 -439
-320 -220 -196 -353 -330 -376 -380 -44 -95 -102 -126 -142 -76 -18 24 -19 24
-35 6 -26 -31 -64 -36 -97 -12 -23 18 -30 19 -39 8 -35 -42 -122 -19 -146 38
-8 20 -15 49 -15 66 0 16 -1 30 -2 31 -2 0 -140 16 -308 34 -215 23 -311 30
-324 23 -31 -17 -4 -24 139 -37 145 -14 182 -23 219 -52 20 -16 26 -29 26 -60
0 -34 -5 -42 -32 -59 -65 -39 -184 -24 -385 50 l-113 41 -125 -76 c-544 -327
-1197 -531 -1802 -562 l-122 -6 -55 -111 c-59 -117 -162 -286 -176 -286 -4 0
-10 17 -14 38 -4 20 -21 124 -40 229 -18 106 -31 195 -28 198 3 3 93 5 201 5
478 0 958 96 1441 287 243 96 395 176 616 324 338 226 683 581 893 917 29 46
51 85 49 86 -2 2 -124 13 -273 25 -295 23 -311 28 -328 88 -8 26 15 91 163
467 94 241 174 444 177 452 4 12 -21 14 -164 14 -640 0 -1185 -144 -1709 -451
-558 -326 -1062 -872 -1408 -1522 l-58 -107 -136 93 c-184 125 -261 181 -262
188 0 11 222 29 351 29 l124 0 23 35 c12 19 22 38 22 43 0 4 -363 45 -807 91
-543 56 -815 88 -830 97 -45 28 -42 104 5 128 25 13 111 6 842 -69 448 -46
833 -85 854 -87 39 -3 40 -2 104 87 187 260 494 591 707 761 583 464 1173 698
1910 758 56 4 537 -3 542 -8z m-725 -166 c82 -31 170 -100 217 -171 168 -251
63 -590 -217 -700 -83 -33 -253 -33 -334 -1 -86 34 -169 100 -216 172 -179
268 -46 624 268 716 66 20 211 12 282 -16z m1124 -195 c112 -56 147 -193 73
-295 -104 -143 -340 -84 -357 90 -7 71 5 116 41 157 64 73 156 92 243 48z
m-1903 -766 c23 -16 101 -60 174 -97 73 -37 133 -70 133 -74 0 -16 -189 22
-256 52 -110 48 -174 143 -174 254 l1 61 40 -83 c30 -62 50 -90 82 -113z
m-204 -22 c3 -124 98 -209 326 -288 l80 -27 -65 -1 c-228 -3 -393 135 -377
314 3 33 9 69 13 80 8 19 9 18 15 -5 4 -14 7 -47 8 -73z m179 -624 c2 -11 -18
-63 -44 -115 -125 -249 -293 -438 -391 -438 -45 0 -77 32 -68 68 13 54 51 116
110 180 87 95 357 333 375 330 8 -2 16 -13 18 -25z m-2173 -222 c110 -77 209
-146 220 -154 20 -14 20 -15 -9 -75 -22 -45 -33 -59 -45 -55 -40 14 -487 236
-585 290 -80 45 -103 63 -90 67 22 7 284 64 299 65 6 1 100 -62 210 -138z
m-449 -17 c151 -85 526 -271 576 -286 21 -6 38 -16 38 -22 0 -9 -39 -113 -47
-125 -4 -6 -303 100 -488 174 -235 95 -498 216 -488 226 7 7 269 98 284 99 4
0 60 -30 125 -66z m-295 -133 c244 -117 582 -255 782 -317 31 -10 57 -22 57
-27 0 -27 -57 -157 -68 -157 -25 0 -371 101 -517 150 -217 74 -562 216 -691
283 l-28 15 45 23 c67 34 233 108 245 108 6 1 85 -35 175 -78z m-360 -135
c274 -130 622 -259 934 -346 203 -56 200 -55 198 -71 -1 -8 -9 -52 -17 -99
-29 -158 -55 -334 -71 -470 -22 -197 -38 -540 -30 -652 l7 -97 -62 -31 c-40
-20 -73 -30 -93 -28 l-32 3 2 135 c3 275 52 613 138 955 29 116 51 211 50 213
-2 2 -77 18 -167 37 -320 64 -616 152 -903 267 -244 98 -250 103 -203 163 16
21 102 85 113 85 1 0 62 -29 136 -64z m1352 -436 c5 -4 2 -72 -7 -151 -28
-256 -36 -397 -36 -659 l0 -256 -27 -26 c-16 -14 -73 -60 -128 -102 l-100 -76
-3 128 c-7 299 41 794 105 1085 l18 79 85 -7 c47 -4 89 -10 93 -15z m190 -312
c4 -167 12 -350 17 -408 l10 -105 -112 -110 -113 -110 -3 205 c-2 113 2 279 8
370 11 170 36 412 46 443 4 14 17 17 73 17 l68 0 6 -302z m181 280 c3 -13 10
-45 15 -73 6 -27 20 -106 31 -175 12 -69 28 -154 36 -189 l14 -64 -35 -45
c-19 -25 -67 -83 -107 -129 l-73 -83 -7 47 c-4 27 -11 202 -14 391 l-7 342 71
0 c66 0 72 -2 76 -22z"/>
<path d="M3530 5136 c-124 -45 -291 -111 -372 -145 -133 -56 -147 -65 -143
-84 2 -12 9 -67 15 -122 15 -144 21 -175 31 -175 10 0 874 336 895 348 8 5
-17 45 -86 132 -53 68 -101 125 -106 127 -5 1 -110 -35 -234 -81z"/>
<path d="M5625 5321 c-151 -70 -169 -283 -32 -378 36 -25 49 -28 122 -28 70 0
86 3 118 25 63 42 91 93 95 170 5 75 -14 124 -65 172 -61 58 -161 75 -238 39z"/>
<path d="M6185 4757 c-86 -29 -153 -84 -193 -161 -36 -68 -38 -186 -5 -257 27
-60 86 -119 149 -150 72 -35 189 -34 259 3 109 58 169 154 169 273 0 87 -28
155 -87 213 -76 75 -202 108 -292 79z"/>
<path d="M4281 4200 c-110 -23 -212 -103 -263 -208 -30 -61 -33 -74 -33 -162
0 -88 3 -101 33 -162 116 -236 421 -288 605 -103 69 69 101 142 105 242 5 101
-14 172 -64 239 -90 121 -243 183 -383 154z m179 -131 c88 -39 139 -113 148
-214 6 -81 -15 -141 -70 -202 -43 -46 -124 -83 -182 -83 -144 0 -266 121 -266
265 1 193 189 312 370 234z"/>
<path d="M5516 4030 c-132 -40 -119 -225 17 -247 72 -11 137 50 137 128 0 69
-34 107 -110 124 -8 2 -28 -1 -44 -5z"/>
</g>
</svg>
