<svg width="12" height="13" fill="none" xmlns="http://www.w3.org/2000/svg"><g clip-path="url(#a)"><path d="M11.663 3.326a1.148 1.148 0 0 0-1.605 0L5.972 7.293l-4.03-3.967a1.148 1.148 0 0 0-1.854.365 1.106 1.106 0 0 0 .249 1.226L5.163 9.67a1.14 1.14 0 0 0 .809.331 1.154 1.154 0 0 0 .808-.331l4.883-4.752A1.12 1.12 0 0 0 12 4.122a1.107 1.107 0 0 0-.337-.796Z" fill="url(#b)"/></g><defs><linearGradient id="b" x1="6.164" y1="14.301" x2="12.1" y2="4.093" gradientUnits="userSpaceOnUse"><stop stop-color="#EF445F"/><stop offset="1" stop-color="#FF8415"/></linearGradient><clipPath id="a"><path fill="#fff" d="M0 0h12v13H0z"/></clipPath></defs></svg>