<svg fill="none" xmlns="http://www.w3.org/2000/svg" viewBox="0 0 190 47"><path d="M23.68 24.816a3.578 3.578 0 0 1-.448-.64c-.085-.17-.043-.405.128-.704a26.723 26.723 0 0 0 2.176-4.736c.64-1.707.96-3.456.96-5.248 0-2.39-.384-4.395-1.152-6.016-.768-1.664-1.813-3.008-3.136-4.032-1.323-1.067-2.859-1.835-4.608-2.304a24.393 24.393 0 0 0-5.376-.832c-1.877-.085-3.776 0-5.696.256s-3.733.619-5.44 1.088l-.064.064c.128 7.424.128 14.784 0 22.08-.128 7.253-.064 14.57.192 21.952.213.085.427.128.64.128h.768c1.536.043 3.179.128 4.928.256 1.792.128 3.563.17 5.312.128 1.792 0 3.52-.107 5.184-.32 1.664-.256 3.179-.725 4.544-1.408a9.778 9.778 0 0 0 3.456-2.88c.981-1.28 1.643-2.923 1.984-4.928.256-1.365.299-2.603.128-3.712-.17-1.11-.49-2.112-.96-3.008a12.706 12.706 0 0 0-1.6-2.624 50.01 50.01 0 0 0-1.92-2.56ZM17.664 35.44a4.058 4.058 0 0 1-1.536 1.152 7.88 7.88 0 0 1-1.856.448c-.64.043-1.301.064-1.984.064a27.968 27.968 0 0 0-1.856-.064l-.128-.064c-.341-.512-.576-1.152-.704-1.92a14.382 14.382 0 0 1-.192-2.368 23.53 23.53 0 0 1 .704-4.672c.81.085 1.643.15 2.496.192.853 0 1.685.107 2.496.32.555.128 1.088.405 1.6.832.512.384.896.832 1.152 1.344.299.725.448 1.536.448 2.432.043.896-.17 1.664-.64 2.304ZM17.6 17.2c-.341.64-.81 1.13-1.408 1.472a5.25 5.25 0 0 1-1.856.576 11.53 11.53 0 0 1-2.112.064 27.872 27.872 0 0 1-2.048-.192c-.384-1.493-.512-2.944-.384-4.352.17-1.408.213-2.603.128-3.584.64-.341 1.43-.49 2.368-.448.981 0 1.899.085 2.752.256a4.95 4.95 0 0 1 1.792.832c.555.341 1.003.853 1.344 1.536.341.683.405 1.365.192 2.048A8.702 8.702 0 0 1 17.6 17.2ZM59.556 3.184c-.512-.299-1.173-.49-1.984-.576a16.817 16.817 0 0 0-2.56-.064c-.896.043-1.792.128-2.688.256-.853.085-1.557.15-2.112.192-.128 4.95-.213 10.07-.256 15.36 0 5.29-.107 10.496-.32 15.616-.213.981-.683 1.75-1.408 2.304-.725.555-1.515.853-2.368.896-.853.043-1.685-.17-2.496-.64-.768-.47-1.301-1.216-1.6-2.24-.853-10.624-1.045-21.099-.576-31.424V2.8a10.45 10.45 0 0 0-2.112-.32 21.432 21.432 0 0 0-2.368-.128c-.81 0-1.621.021-2.432.064-.768.043-1.472.064-2.112.064H32.1l.064.064c.085 5.632.064 11.307-.064 17.024a760.61 760.61 0 0 0-.192 17.024c.085 1.963.64 3.648 1.664 5.056a12.767 12.767 0 0 0 3.904 3.328c1.579.81 3.328 1.365 5.248 1.664 1.92.341 3.776.427 5.568.256 3.072-.299 5.504-1.43 7.296-3.392 1.792-1.963 2.859-4.352 3.2-7.168.597-5.504.939-11.03 1.024-16.576.085-5.59 0-11.115-.256-16.576ZM89.629 46.32c.725 0 1.237-.043 1.535-.128.3-.085.491-.15.576-.192v-1.28c0-.853-.02-1.707-.063-2.56v-6.08a96.84 96.84 0 0 0 .063-3.584v-5.504c0-1.835-.02-3.648-.063-5.44V.944C90.439.688 89.03.56 87.452.56c-1.62 0-3.157.128-4.608.384-.042 1.067-.085 2.07-.127 3.008V6.64c0 1.536.02 3.05.064 4.544.085 1.45.127 3.03.127 4.736 0 .725-.042 1.472-.127 2.24-.086.768-.193 1.195-.32 1.28-.043 0-.192-.235-.448-.704a42.502 42.502 0 0 0-.96-1.792c-.342-.725-.726-1.515-1.153-2.368-.426-.896-.832-1.728-1.216-2.496-.383-.81-.725-1.515-1.023-2.112a19.938 19.938 0 0 1-.576-1.216 27.97 27.97 0 0 0-1.024-2.176 18.92 18.92 0 0 0-.769-1.6c-.213-.47-.448-.96-.704-1.472a23.134 23.134 0 0 1-.831-1.92c0-.085-.235-.17-.705-.256-.426-.085-.938-.15-1.536-.192a12.656 12.656 0 0 0-1.791-.128 20.553 20.553 0 0 0-1.28-.064c-.512 0-1.024.021-1.536.064-.47.043-.918.107-1.345.192-.213 2.73-.362 5.547-.447 8.448-.086 2.859-.129 5.76-.129 8.704 0 4.01.022 7.85.064 11.52.086 3.67.128 7.53.128 11.584v4.48c.982 0 1.984.064 3.008.192 1.067.128 2.112.192 3.136.192.47 0 .94-.021 1.409-.064A8.14 8.14 0 0 0 74.14 46a41.715 41.715 0 0 1-.064-2.432V35.12c.043-1.92.086-3.67.129-5.248.042-1.579.085-2.88.127-3.904.086-1.024.15-1.536.193-1.536.085 0 .191.213.32.64.17.384.34.81.511 1.28l.64 1.92c.982 2.73 2.155 5.59 3.52 8.576A378.828 378.828 0 0 1 83.74 46c.854 0 1.835.043 2.945.128 1.109.128 2.09.192 2.944.192ZM113.696 23.024a52.625 52.625 0 0 1 2.688-5.376l3.072-5.376a84.005 84.005 0 0 0 2.944-5.376 28.456 28.456 0 0 0 2.176-5.376 20.722 20.722 0 0 0-4.352-.192 36.993 36.993 0 0 1-4.352 0 47.687 47.687 0 0 0-2.432 3.84l-2.048 3.84a64.724 64.724 0 0 1-2.048 3.776 33.187 33.187 0 0 1-2.432 3.584 2.041 2.041 0 0 0-.256.32c-.043.085-.064.107-.064.064a149.876 149.876 0 0 1-.064-7.68c.042-2.688.021-5.248-.064-7.68-1.366 0-2.795-.021-4.288-.064a48.168 48.168 0 0 0-4.288-.064 555.83 555.83 0 0 1-.32 22.336 292.96 292.96 0 0 0 .192 22.08c.554.128 1.237.235 2.047.32a26.355 26.355 0 0 0 5.185 0c.81-.043 1.514-.15 2.112-.32 0-1.195-.022-2.496-.064-3.904 0-1.408-.022-2.837-.064-4.288l-.128-4.288c0-1.45.021-2.795.064-4.032a50.673 50.673 0 0 1 2.048 4.032 499.048 499.048 0 0 1 2.048 4.544c.725 1.536 1.472 3.03 2.24 4.48.768 1.408 1.6 2.624 2.496 3.648 1.365.043 2.837.107 4.416.192 1.621.085 3.114-.021 4.48-.32l-10.944-22.72ZM154.654 37.296c-2.901.085-5.717.064-8.448-.064a133.37 133.37 0 0 0-8.319-.256l-.065-.064c-.085-1.024-.17-2.304-.256-3.84-.042-1.536.043-2.923.256-4.16.214-.17.619-.277 1.216-.32a28.087 28.087 0 0 1 1.984-.064h2.369c.81-.043 1.535-.15 2.175-.32a53.453 53.453 0 0 1 .064-4.544c.086-1.45.022-2.901-.191-4.352v-.064a123.303 123.303 0 0 0-3.968-.064 58.66 58.66 0 0 1-3.905-.128l-.063-.064c-.299-1.152-.384-2.368-.256-3.648a23.78 23.78 0 0 0 .192-3.84l.064-.064h.192a46.632 46.632 0 0 1 4.224-.192c1.408 0 2.816.021 4.224.064 1.408 0 2.794-.021 4.16-.064a27.085 27.085 0 0 0 4.159-.576v-.064c0-1.493.043-3.008.128-4.544.129-1.536.086-3.05-.128-4.544 0-.043-.426-.085-1.28-.128a71.135 71.135 0 0 0-3.392-.064c-1.408 0-3.029.021-4.864.064-1.834.043-3.733.085-5.696.128-1.962.043-3.925.107-5.888.192-1.92.043-3.712.107-5.376.192a235.99 235.99 0 0 0-.383 10.944 458.832 458.832 0 0 0 0 10.88c.042 3.627.106 7.275.192 10.944.085 3.627.128 7.296.128 11.008 4.138.341 8.448.448 12.928.32 4.522-.17 8.96-.235 13.312-.192.341-1.28.533-2.645.576-4.096a47.186 47.186 0 0 0-.065-4.288v-.128ZM189.499 45.808a32.029 32.029 0 0 0-2.368-5.056 92.206 92.206 0 0 0-2.944-4.864 177.554 177.554 0 0 0-3.136-4.672 71.366 71.366 0 0 1-2.944-4.736v-.064h.32c2.048-.128 3.733-.704 5.056-1.728a11.374 11.374 0 0 0 3.264-3.84c1.323-2.219 1.941-4.501 1.856-6.848-.043-2.39-.619-4.565-1.728-6.528-1.109-1.963-2.667-3.605-4.672-4.928S177.936.496 175.419.368c-3.115-.341-6.101-.363-8.96-.064-2.859.299-5.483.619-7.872.96.085.555.149 1.621.192 3.2.085 1.536.149 3.413.192 5.632.043 2.176.085 4.587.128 7.232.085 2.603.128 5.248.128 7.936.043 2.645.064 5.227.064 7.744V39.6c0 1.92-.021 3.477-.064 4.672-.043 1.152-.107 1.728-.192 1.728.213-.043.768-.043 1.664 0 .939.043 1.984.043 3.136 0 1.152 0 2.304-.043 3.456-.128 1.195-.085 2.155-.277 2.88-.576a374.98 374.98 0 0 0-.192-3.264 805.297 805.297 0 0 1-.256-4.288 157.969 157.969 0 0 1-.064-4.416c0-1.45.064-2.667.192-3.648l.128.192c.896 1.11 1.792 2.39 2.688 3.84a64.808 64.808 0 0 1 2.496 4.416 141.5 141.5 0 0 1 3.712 7.808h.064c1.92.128 3.797.15 5.632.064a72.315 72.315 0 0 1 4.992-.192h-.064Zm-21.568-35.584c1.493-.597 2.965-.917 4.416-.96 1.451-.085 2.645.299 3.584 1.152.597.47 1.024 1.11 1.28 1.92.256.768.341 1.557.256 2.368-.085.768-.363 1.493-.832 2.176-.427.64-1.045 1.045-1.856 1.216-1.024.17-2.112.235-3.264.192a64.587 64.587 0 0 1-3.2-.192h-.064a15.317 15.317 0 0 1-.192-1.728v-2.112c0-.725-.021-1.43-.064-2.112 0-.725-.021-1.365-.064-1.92Z" fill="#fff"/></svg>