<svg xmlns="http://www.w3.org/2000/svg" width="32" height="31" fill="none"><path fill="#D2D2D2" fill-rule="evenodd" d="M20.108 12.153c-1.023 0-1.851.802-1.851 1.792s.828 1.792 1.85 1.792c1.023 0 1.852-.802 1.852-1.792s-.829-1.792-1.851-1.792Zm-2.239 1.792c0-1.197 1.003-2.167 2.239-2.167s2.238.97 2.238 2.167c0 1.197-1.002 2.167-2.238 2.167s-2.239-.97-2.239-2.167Z" clip-rule="evenodd"/><path fill="#D2D2D2" d="M20.108 15.205c.718 0 1.3-.564 1.3-1.26 0-.696-.582-1.26-1.3-1.26-.719 0-1.301.564-1.301 1.26 0 .696.582 1.26 1.3 1.26ZM16.576 15.212s.016.053.039.143.062.217.116.352a2.301 2.301 0 0 0 .217.45c.023.038.046.075.077.105.016.015.024.037.039.052l.046.046c.063.06.124.105.217.165l.124.074c.047.023.085.045.132.075.046.023.085.045.132.068.046.022.085.045.131.067.178.09.341.165.48.24.148.068.264.135.349.18.085.045.132.075.132.075h-.155c-.101 0-.233-.015-.395-.045-.085-.015-.17-.03-.264-.052-.092-.023-.185-.053-.286-.083-.1-.03-.201-.075-.302-.12-.047-.022-.1-.045-.147-.075-.055-.03-.101-.06-.155-.09l-.093-.067-.023-.015-.016-.015c-.046-.045-.1-.083-.132-.128l-.061-.067c-.016-.023-.031-.053-.047-.075a.956.956 0 0 1-.085-.15 1.645 1.645 0 0 1-.1-.292l-.024-.135c0-.045-.008-.09-.008-.128-.008-.165.008-.3.031-.39.008-.112.031-.165.031-.165ZM16.166 16.022v.143c.007.09.015.217.046.367.008.038.016.075.023.12.016.037.024.082.04.12.03.082.061.172.108.255a.642.642 0 0 0 .077.12c.015.022.03.037.046.06l.055.052a.97.97 0 0 0 .24.188l.131.082c.047.023.093.053.14.075a5.644 5.644 0 0 0 .79.315c.155.053.279.09.372.113.092.022.139.037.139.037l-.008.038s-.015.007-.039.007c-.03 0-.07.015-.116.015-.054.008-.116.008-.186.008-.07 0-.147 0-.232-.008-.085-.007-.178-.015-.271-.037a2.577 2.577 0 0 1-.612-.18c-.054-.023-.108-.045-.155-.075-.054-.03-.108-.068-.17-.098l-.093-.067-.023-.023-.023-.015c-.055-.045-.109-.09-.148-.15a.53.53 0 0 1-.062-.075c-.015-.03-.038-.052-.054-.082-.039-.053-.062-.113-.085-.165a1.85 1.85 0 0 1-.093-.323c-.008-.052-.015-.097-.015-.15v-.134a1.723 1.723 0 0 1 .077-.405.872.872 0 0 1 .046-.113c.016-.022.024-.037.024-.037l.03.022ZM16.863 19.411c.108-.082.263.023.216.15-.131.368-.542 1.17-.906 1.635-.441.57-1.045 1.222-1.463.9-.287-.218.147-.945.828-1.53.395-.345 1.023-.93 1.325-1.155ZM21.47 9.394l-.673-1.627a.226.226 0 0 0-.287-.12l-1.913.742-6.102-7.82c-.078-.106-.24-.038-.225.09l1.177 9.732-1.773.69c-.109.045-.17.165-.124.277l.674 1.627c.046.105.17.165.286.12l8.845-3.434a.213.213 0 0 0 .116-.277Zm-7.837-.698a50.864 50.864 0 0 1 1.797-.75 34.003 34.003 0 0 1 1.835-.652l.968 1.245-4.406 1.71-.194-1.553ZM26.66 6.702c.596 0 1.076.465 1.076 1.042s-.48 1.042-1.076 1.042c-.597 0-1.077-.465-1.077-1.042s.488-1.042 1.077-1.042Zm0-.375c-.806 0-1.464.637-1.464 1.417s.658 1.417 1.464 1.417c.805 0 1.463-.637 1.463-1.417s-.658-1.417-1.463-1.417ZM29.3 9.461c.822 0 1.495.645 1.495 1.447 0 .803-.666 1.447-1.494 1.447-.829 0-1.495-.644-1.495-1.447 0-.802.674-1.447 1.495-1.447Zm0-.375c-1.037 0-1.881.818-1.881 1.822 0 1.005.844 1.822 1.882 1.822 1.038 0 1.882-.817 1.882-1.822 0-1.004-.845-1.822-1.882-1.822ZM25.839 12.978c.34 0 .62.27.62.6 0 .33-.28.6-.62.6-.34 0-.62-.27-.62-.6 0-.33.28-.6.62-.6Zm0-.375c-.55 0-1.007.435-1.007.975s.45.974 1.007.974c.557 0 1.007-.434 1.007-.974s-.457-.975-1.007-.975ZM11.248 24.473l.008-.015c-.008 0-.008.007-.008.015ZM9.63 24.503c-.024-.15-.04-.278-.055-.375l-.69-.023c0 .105-.007.233-.007.375-.016.802-.008 2.07.108 3.36.349-.383.697-.796 1.023-1.238a28.91 28.91 0 0 1-.38-2.1ZM7.856 24.03a14.141 14.141 0 0 1-.79-.09s-.008 0-.016-.007c-.039-.008-.077-.008-.116-.015-.016.082-.039.21-.07.367-.201 1.11-.65 3.832-.51 5.856a15.32 15.32 0 0 0 1.254-.975c-.109-1.702.077-3.659.209-4.768.008-.135.023-.255.039-.368ZM8.723 24.473c0-.143.008-.263.008-.375-.24-.015-.48-.03-.72-.053-.016.113-.032.233-.047.375-.132 1.08-.31 2.97-.217 4.627.349-.308.728-.668 1.1-1.058a31.715 31.715 0 0 1-.124-3.516Z"/><path fill="#D2D2D2" d="M6.779 23.873c-.1-.023-.225-.06-.372-.098H6.4c-1.24-.337-3.974-1.147-5.763-2.144-.224.12-.364.217-.418.262-.093.083-.186.165-.217.308-.015.075.047.142.117.172.588.24 2.842 1.327 6.149 1.852-.953 3.082-.945 5.541-.976 6.149-.008.075.031.157.108.18.14.037.264-.015.38-.06.062-.023.21-.105.418-.24-.14-1.77.186-4.094.41-5.422.032-.202.07-.382.094-.54v-.014l.07-.368c0-.015.007-.022.007-.037ZM7.476 21.18a34.055 34.055 0 0 1-1.789-1.259c-.558.09-1.092.21-1.595.345a36.788 36.788 0 0 0 3.423 1.732c.093-.202.186-.405.286-.607a7.922 7.922 0 0 1-.325-.21Z"/><path fill="#D2D2D2" d="M31.547 17.454a.682.682 0 0 0-.512-.225c-.302 0-.836.165-2.307 1.418-.605.517-1.2 1.08-1.604 1.477l-.046-.068a.318.318 0 0 0-.434-.075.324.324 0 0 0-.108.12c-.016-.015-.031-.022-.039-.03a.324.324 0 0 0-.403.038.329.329 0 0 0-.07-.083l-.116-.09-.139.023c-.14.022-.209.09-.27.24a.31.31 0 0 0-.226-.218.317.317 0 0 0-.379.218c-.008.03-.015.075-.031.112l-2.254-.232a15.289 15.289 0 0 0 3.191-4.087l-3.082-.262a.115.115 0 0 1-.101-.15l1.812-4.612a18.6 18.6 0 0 0-1.564-.067c-6.366 0-11.036 3.464-13.933 7.76l-8.1-.832h-.04a.388.388 0 0 0-.387.338.38.38 0 0 0 .34.412l7.722.802c-.085.135-.17.27-.247.413-.79-.045-1.573 0-2.332.112.65.48 1.24.885 1.65 1.155.124.082.24.157.325.21a20.478 20.478 0 0 1 1.07-1.897c.038-.068.084-.128.123-.195.031-.053.062-.098.1-.15.04-.053.07-.105.11-.158a19.118 19.118 0 0 1 2.942-3.426 16.031 16.031 0 0 1 4.701-3c1.859-.764 3.857-1.147 5.956-1.147.333 0 .681.008 1.022.03l-1.626 4.14a.483.483 0 0 0 .046.434c.085.128.225.21.38.225l2.493.21a14.601 14.601 0 0 1-3.91 4.372c-.063.044-.117.09-.179.134-.147.105-.294.21-.449.315-.612.413-1.262.78-1.944 1.11-2.253 1.087-4.879 1.725-7.644 1.852-.356.015-.712.03-1.076.03H9.73c.015.098.03.225.054.375.07.465.186 1.155.348 1.927.427-.607.814-1.26 1.116-1.964 3.407-.188 6.908-1.14 9.828-3.165.263.098.534.195.743.278.837.33 1.704.39 1.782.045.054-.255-.132-.443-.434-.585l-1.518-.158c.054-.045.116-.09.17-.134l2.959.307c0 .232.039.45.155.592.1.12.24.18.402.173a.41.41 0 0 0 .318-.18.331.331 0 0 0 .263.187c.217.03.326-.112.395-.255a.287.287 0 0 0 .124.21.308.308 0 0 0 .178.053c.085 0 .163-.03.225-.09.054-.053.24-.308.348-.638a.889.889 0 0 0 .132-.105c1.92-1.904 3.276-2.939 3.687-3.021.093.127.395.78.116 3.884-.147 1.672-.612 3.584-.93 3.854h-.007c-.055 0-.419-.045-1.116-1.207a12.5 12.5 0 0 1-.728-1.448.395.395 0 0 0-.356-.232c-.046 0-.1.007-.147.03a.37.37 0 0 0-.217.487c.016.03.325.788.775 1.537.642 1.08 1.208 1.59 1.773 1.59.031 0 .062 0 .093-.007.511-.015.867-.6 1.193-1.935.217-.885.372-1.942.426-2.602.302-3.366-.023-4.169-.333-4.499Z"/><path fill="#D2D2D2" d="M6.764 22.8c-1.092-.374-2.998-1.072-4.523-1.912-.597.24-1.092.473-1.449.66 1.782.968 4.446 1.755 5.662 2.085.147.037.27.075.372.097.092-.27.193-.54.302-.81-.109-.03-.233-.075-.364-.12ZM7.104 21.983a35.001 35.001 0 0 1-3.214-1.65c-.526.15-1.022.323-1.464.488 1.503.802 3.33 1.477 4.392 1.845.131.044.255.09.364.12.085-.218.178-.435.27-.645l-.348-.158Z"/></svg>