<svg fill="none" xmlns="http://www.w3.org/2000/svg" viewBox="0 0 161 50"><path d="M31.72 49H.345V4.187h8.969v35.844H31.72V49ZM46.204 6.438c0 .791-.157 1.53-.469 2.218a5.67 5.67 0 0 1-1.219 1.813c-.52.5-1.135.906-1.843 1.219a5.621 5.621 0 0 1-2.22.437 5.85 5.85 0 0 1-2.25-.438 6.442 6.442 0 0 1-1.812-1.218 6.443 6.443 0 0 1-1.218-1.813 5.621 5.621 0 0 1-.438-2.219c0-.77.146-1.5.438-2.187a5.898 5.898 0 0 1 1.218-1.813 5.668 5.668 0 0 1 1.813-1.218 5.513 5.513 0 0 1 2.25-.469c.791 0 1.531.156 2.218.469a5.584 5.584 0 0 1 1.844 1.218c.521.5.927 1.105 1.219 1.813.313.688.469 1.417.469 2.188ZM44.735 49h-8.594V15.531h8.594V49ZM84.313 49H82.25l-3.313-4.594a28.183 28.183 0 0 1-2.593 2.063 20.271 20.271 0 0 1-2.844 1.656c-1 .458-2.031.823-3.094 1.094-1.041.27-2.104.406-3.187.406-2.354 0-4.573-.396-6.656-1.188A16.093 16.093 0 0 1 55.124 45c-1.542-1.52-2.76-3.375-3.656-5.563-.896-2.187-1.344-4.677-1.344-7.468 0-2.604.448-4.99 1.344-7.157.896-2.187 2.114-4.062 3.656-5.625a16.588 16.588 0 0 1 5.438-3.625c2.083-.874 4.302-1.312 6.656-1.312 1.083 0 2.156.135 3.219.406 1.062.271 2.093.646 3.093 1.125 1 .48 1.948 1.042 2.844 1.688.917.646 1.77 1.343 2.563 2.093l3.312-3.968h2.063V49Zm-8.594-17.031c0-1.167-.23-2.292-.688-3.375a9.253 9.253 0 0 0-1.812-2.907 8.695 8.695 0 0 0-2.719-2.03 7.118 7.118 0 0 0-3.281-.782c-1.167 0-2.271.198-3.313.594a7.69 7.69 0 0 0-2.687 1.75c-.75.77-1.344 1.729-1.782 2.875-.437 1.125-.656 2.416-.656 3.875 0 1.458.219 2.76.657 3.906.437 1.125 1.03 2.073 1.78 2.844a7.693 7.693 0 0 0 2.688 1.75 9.247 9.247 0 0 0 3.313.593 7.36 7.36 0 0 0 3.281-.75 9.384 9.384 0 0 0 2.719-2.03 9.75 9.75 0 0 0 1.812-2.907 8.804 8.804 0 0 0 .688-3.406ZM100.015 49h-8.531V15.531h2.062l2.813 3.25a14.756 14.756 0 0 1 4.656-2.875 14.827 14.827 0 0 1 5.469-1.031c2.041 0 3.968.396 5.781 1.188a14.637 14.637 0 0 1 4.75 3.218 14.782 14.782 0 0 1 3.187 4.782c.792 1.812 1.188 3.75 1.188 5.812V49h-8.531V29.875c0-.875-.167-1.698-.5-2.469a6.406 6.406 0 0 0-1.375-2.062 6.491 6.491 0 0 0-2.032-1.375 6.145 6.145 0 0 0-2.468-.5c-.896 0-1.74.166-2.532.5a6.39 6.39 0 0 0-2.062 1.375 6.39 6.39 0 0 0-1.375 2.062c-.333.771-.5 1.594-.5 2.469V49ZM160.53 49h-2.063l-3.312-4.594a28.2 28.2 0 0 1-2.594 2.063 20.28 20.28 0 0 1-2.844 1.656c-1 .458-2.031.823-3.093 1.094a12.62 12.62 0 0 1-3.188.406c-2.354 0-4.573-.396-6.656-1.188A16.095 16.095 0 0 1 131.342 45c-1.541-1.52-2.76-3.375-3.656-5.563-.896-2.187-1.344-4.677-1.344-7.468 0-2.604.448-4.99 1.344-7.157.896-2.187 2.115-4.062 3.656-5.625a16.59 16.59 0 0 1 5.438-3.625c2.083-.874 4.302-1.312 6.656-1.312 1.084 0 2.156.135 3.219.406a16.7 16.7 0 0 1 3.094 1.125c1 .48 1.948 1.042 2.843 1.688a22.878 22.878 0 0 1 2.563 2.093l3.312-3.968h2.063V49Zm-8.594-17.031a8.583 8.583 0 0 0-.687-3.375 9.262 9.262 0 0 0-1.813-2.907 8.694 8.694 0 0 0-2.719-2.03 7.114 7.114 0 0 0-3.281-.782 9.242 9.242 0 0 0-3.312.594 7.692 7.692 0 0 0-2.688 1.75c-.75.77-1.344 1.729-1.781 2.875-.438 1.125-.656 2.416-.656 3.875 0 1.458.218 2.76.656 3.906.437 1.125 1.031 2.073 1.781 2.844a7.695 7.695 0 0 0 2.688 1.75 9.244 9.244 0 0 0 3.312.593c1.167 0 2.261-.25 3.281-.75a9.383 9.383 0 0 0 2.719-2.03 9.76 9.76 0 0 0 1.813-2.907 8.811 8.811 0 0 0 .687-3.406Z" fill="#fff"/></svg>