<svg xmlns="http://www.w3.org/2000/svg" xmlns:xlink="http://www.w3.org/1999/xlink" viewBox="0 0 758 211.83"><defs><linearGradient id="linear-gradient" x1="-32.34" y1="-473.09" x2="180.23" y2="-259.25" gradientTransform="matrix(1 0 0 -1 0 -284.17)" gradientUnits="userSpaceOnUse"><stop offset="0" stop-color="#dc165c"/><stop offset="1" stop-color="#ff8000"/></linearGradient><linearGradient id="linear-gradient-2" x1="24.26" y1="-529.36" x2="236.84" y2="-315.51" xlink:href="#linear-gradient"/><linearGradient id="linear-gradient-3" x1="-42.3" y1="-456.07" x2="165.83" y2="-246.69" gradientTransform="matrix(1 0 0 -1 0 -284.17)" gradientUnits="userSpaceOnUse"><stop offset="0" stop-color="#dc165c"/><stop offset="1" stop-color="#ff8000"/></linearGradient><linearGradient id="linear-gradient-4" x1="35.95" y1="-538.09" x2="244.08" y2="-328.71" xlink:href="#linear-gradient"/><style>.cls-3{fill:#fff}</style></defs><g id="Layer_2" data-name="Layer 2"><g id="Layer_1-2" data-name="Layer 1"><path d="M94 86q0 27.84-22 36l29.34 41.43h-31.9l-25.68-37h-17.9v36.94H0V47.52h43.92q27 0 38.54 9.12T94 86ZM62.81 99.74q4.8-4.32 4.81-13.68t-5-12.85q-5-3.46-17.41-3.48H25.86V104h18.9q13.24 0 18.05-4.26Z" style="fill:url(#linear-gradient)"/><path d="M204 47.52v23h-57.65v23.91h51.88v22h-51.88v24h59.5v22.86H120.5V47.52Z" style="fill:url(#linear-gradient-2)"/><path class="cls-3" d="M293.25 163.37h-21.88L224.79 47.52h21.89L282.31 134 318 47.52h21.88ZM366.17 137l-11.6 26.35h-20.88l51.05-115.83h20.89l51.05 115.85h-20.89L424.19 137Zm50.06-18-21-47.73-21.1 47.73ZM496 136.87q7.95 9.28 21.55 9.28c9 0 16.25-3.09 21.54-9.28s8-14.59 8-25.21V47.52h19.57v65q0 25-13.77 38.54t-35.3 13.51q-21.56 0-35.31-13.51t-13.77-38.54v-65H488v64.14q0 15.93 8 25.21ZM597.21 163.37V47.52h19.57v97.3h52.87v18.55ZM722.86 65.43v97.94h-19.55V65.43h-35.14V47.52H758v17.91Z"/><path d="M206.08 22.7a3.82 3.82 0 0 1-3.81 3.82H4.11c-2.1 0-2.54-1.15-1-2.56L26.93 2.55A11.55 11.55 0 0 1 33.59 0h168.68a3.83 3.83 0 0 1 3.81 3.82V22.7Z" style="fill:url(#linear-gradient-3)"/><path d="M.29 189.12a3.83 3.83 0 0 1 3.82-3.81h198.16c2.09 0 2.54 1.15 1 2.55l-23.79 21.42a11.55 11.55 0 0 1-6.66 2.56H4.11A3.83 3.83 0 0 1 .29 208Z" style="fill:url(#linear-gradient-4)"/></g></g></svg>