<svg xmlns="http://www.w3.org/2000/svg" width="230" height="20" fill="none"><path fill="#D2D2D2" d="M4.888 19c-.277 0-.503-.078-.676-.234a1.003 1.003 0 0 1-.286-.572L.962 1.528a.23.23 0 0 1-.026-.104v-.078c0-.139.052-.26.156-.364A.493.493 0 0 1 1.482.8h2.73c.45 0 .702.182.754.546l1.95 10.998 2.106-6.838a1.72 1.72 0 0 1 .26-.442c.121-.156.32-.234.598-.234h1.638c.277 0 .477.078.598.234.121.156.2.303.234.442l2.132 6.812 1.924-10.972c.052-.364.312-.546.78-.546h2.73c.156 0 .286.06.39.182a.499.499 0 0 1 .156.364v.078c0 .035-.009.07-.026.104l-2.964 16.666a.943.943 0 0 1-.312.572c-.156.156-.373.234-.65.234h-2.106c-.277 0-.494-.07-.65-.208a1.364 1.364 0 0 1-.286-.468l-2.782-8.06-2.756 8.06a1.228 1.228 0 0 1-.312.468c-.139.139-.355.208-.65.208h-2.08Zm19.87 0a.634.634 0 0 1-.468-.182.634.634 0 0 1-.182-.468V1.45c0-.19.061-.347.182-.468A.633.633 0 0 1 24.758.8h2.938c.191 0 .347.06.468.182a.634.634 0 0 1 .182.468v16.9c0 .19-.06.347-.182.468a.634.634 0 0 1-.468.182h-2.938Zm7.918 0a.634.634 0 0 1-.468-.182.693.693 0 0 1-.181-.468v-2.184c0-.243.051-.442.155-.598.104-.156.182-.269.234-.338l8.737-10.972H32.91a.602.602 0 0 1-.443-.182.602.602 0 0 1-.182-.442V1.45c0-.19.061-.347.182-.468A.602.602 0 0 1 32.91.8h12.767c.19 0 .346.06.468.182a.593.593 0 0 1 .207.468v2.158c0 .19-.034.364-.103.52-.07.139-.148.26-.235.364l-8.502 11.024h8.477c.19 0 .346.06.468.182a.634.634 0 0 1 .181.468v2.184c0 .19-.06.347-.181.468a.634.634 0 0 1-.468.182H32.675Zm16.555 0a.53.53 0 0 1-.39-.156.59.59 0 0 1-.156-.39c0-.087.009-.165.026-.234L54.9 1.502c.052-.19.156-.355.312-.494s.373-.208.65-.208h3.328c.278 0 .494.07.65.208.156.139.26.303.312.494L66.34 18.22c.017.07.026.147.026.234a.59.59 0 0 1-.156.39.53.53 0 0 1-.39.156h-2.704c-.26 0-.45-.06-.572-.182a.918.918 0 0 1-.234-.338l-1.118-2.912H53.86l-1.118 2.912a.918.918 0 0 1-.234.338c-.121.121-.312.182-.572.182h-2.704Zm5.59-6.786h5.382l-2.678-7.488-2.704 7.488ZM70.034 19a.634.634 0 0 1-.468-.182.634.634 0 0 1-.182-.468V1.45c0-.19.06-.347.182-.468A.634.634 0 0 1 70.034.8h6.89c2.166 0 3.874.503 5.122 1.508 1.248.988 1.872 2.418 1.872 4.29 0 1.265-.303 2.323-.91 3.172-.607.85-1.421 1.482-2.444 1.898l3.666 6.5c.052.104.078.2.078.286a.59.59 0 0 1-.156.39.53.53 0 0 1-.39.156h-2.886c-.312 0-.546-.078-.702-.234a2.21 2.21 0 0 1-.338-.468l-3.172-5.954h-3.146v6.006c0 .19-.06.347-.182.468a.634.634 0 0 1-.468.182h-2.834Zm3.484-9.958h3.328c.953 0 1.655-.217 2.106-.65.468-.433.702-1.04.702-1.82s-.225-1.395-.676-1.846c-.45-.45-1.161-.676-2.132-.676h-3.328v4.992ZM88.537 19a.634.634 0 0 1-.469-.182.634.634 0 0 1-.181-.468V1.45c0-.19.06-.347.181-.468A.633.633 0 0 1 88.537.8h6.525c1.734 0 3.181.277 4.343.832 1.161.537 2.045 1.335 2.652 2.392.624 1.04.953 2.331.988 3.874.017.763.026 1.43.026 2.002 0 .572-.009 1.23-.026 1.976-.052 1.612-.373 2.947-.962 4.004-.59 1.057-1.456 1.846-2.6 2.366-1.145.503-2.575.754-4.29.754h-6.656Zm3.483-3.354h3.043c.866 0 1.577-.13 2.132-.39.554-.26.962-.667 1.222-1.222.277-.572.424-1.309.442-2.21.017-.503.026-.953.026-1.352.017-.399.017-.797 0-1.196 0-.399-.01-.84-.026-1.326-.035-1.3-.373-2.253-1.014-2.86-.624-.624-1.595-.936-2.912-.936H92.02v11.492Zm28.15 3.614c-1.664 0-3.059-.243-4.186-.728-1.109-.485-1.95-1.118-2.522-1.898-.572-.78-.875-1.612-.91-2.496 0-.139.052-.26.156-.364a.493.493 0 0 1 .39-.182h2.782c.226 0 .399.052.52.156.122.087.234.2.338.338.122.295.312.58.572.858.278.277.65.511 1.118.702.468.173 1.049.26 1.742.26 1.127 0 1.968-.182 2.522-.546.572-.364.858-.858.858-1.482 0-.45-.156-.815-.468-1.092-.294-.277-.771-.529-1.43-.754-.641-.225-1.499-.468-2.574-.728-1.3-.277-2.409-.633-3.328-1.066-.901-.45-1.586-1.023-2.054-1.716-.45-.71-.676-1.586-.676-2.626 0-1.04.286-1.959.858-2.756.572-.815 1.378-1.447 2.418-1.898 1.04-.468 2.28-.702 3.718-.702 1.162 0 2.184.156 3.068.468.902.312 1.647.72 2.236 1.222.607.503 1.066 1.04 1.378 1.612.312.572.477 1.127.494 1.664a.59.59 0 0 1-.156.39.53.53 0 0 1-.39.156h-2.912c-.173 0-.329-.035-.468-.104a.778.778 0 0 1-.338-.364c-.104-.45-.416-.84-.936-1.17-.502-.347-1.161-.52-1.976-.52-.849 0-1.525.156-2.028.468-.485.312-.728.789-.728 1.43 0 .416.122.771.364 1.066.26.277.685.529 1.274.754a35.63 35.63 0 0 0 2.392.702c1.526.312 2.765.685 3.718 1.118.954.433 1.656.997 2.106 1.69.451.676.676 1.534.676 2.574 0 1.161-.329 2.158-.988 2.99-.641.832-1.534 1.473-2.678 1.924-1.126.433-2.444.65-3.952.65Zm9.844-.26a.53.53 0 0 1-.39-.156.59.59 0 0 1-.156-.39c0-.087.009-.165.026-.234l6.188-16.718c.052-.19.156-.355.312-.494s.373-.208.65-.208h3.328c.277 0 .494.07.65.208.156.139.26.303.312.494l6.188 16.718c.017.07.026.147.026.234a.59.59 0 0 1-.156.39.53.53 0 0 1-.39.156h-2.704c-.26 0-.451-.06-.572-.182a.925.925 0 0 1-.234-.338l-1.118-2.912h-7.332l-1.118 2.912a.925.925 0 0 1-.234.338c-.121.121-.312.182-.572.182h-2.704Zm5.59-6.786h5.382l-2.678-7.488-2.704 7.488ZM150.817 19a.633.633 0 0 1-.468-.182.63.63 0 0 1-.182-.468V1.45c0-.19.06-.347.182-.468a.632.632 0 0 1 .468-.182h6.89c2.166 0 3.874.503 5.122 1.508 1.248.988 1.872 2.418 1.872 4.29 0 1.265-.304 2.323-.91 3.172-.607.85-1.422 1.482-2.444 1.898l3.666 6.5c.052.104.078.2.078.286a.59.59 0 0 1-.156.39.53.53 0 0 1-.39.156h-2.886c-.312 0-.546-.078-.702-.234a2.196 2.196 0 0 1-.338-.468l-3.172-5.954h-3.146v6.006c0 .19-.061.347-.182.468a.636.636 0 0 1-.468.182h-2.834Zm3.484-9.958h3.328c.953 0 1.655-.217 2.106-.65.468-.433.702-1.04.702-1.82s-.226-1.395-.676-1.846c-.451-.45-1.162-.676-2.132-.676h-3.328v4.992ZM169.319 19a.636.636 0 0 1-.468-.182.635.635 0 0 1-.182-.468V1.45c0-.19.061-.347.182-.468a.636.636 0 0 1 .468-.182h6.526c1.734 0 3.181.277 4.342.832 1.162.537 2.046 1.335 2.652 2.392.624 1.04.954 2.331.988 3.874.018.763.026 1.43.026 2.002 0 .572-.008 1.23-.026 1.976-.052 1.612-.372 2.947-.962 4.004-.589 1.057-1.456 1.846-2.6 2.366-1.144.503-2.574.754-4.29.754h-6.656Zm3.484-3.354h3.042c.867 0 1.578-.13 2.132-.39.555-.26.962-.667 1.222-1.222.278-.572.425-1.309.442-2.21.018-.503.026-.953.026-1.352.018-.399.018-.797 0-1.196 0-.399-.008-.84-.026-1.326-.034-1.3-.372-2.253-1.014-2.86-.624-.624-1.594-.936-2.912-.936h-2.912v11.492ZM188.533 19a.633.633 0 0 1-.468-.182.635.635 0 0 1-.182-.468V1.45c0-.19.061-.347.182-.468a.632.632 0 0 1 .468-.182h2.938c.191 0 .347.06.468.182a.635.635 0 0 1 .182.468v16.9c0 .19-.061.347-.182.468a.633.633 0 0 1-.468.182h-2.938Zm8.854 0a.633.633 0 0 1-.468-.182.635.635 0 0 1-.182-.468V1.45c0-.19.061-.347.182-.468a.632.632 0 0 1 .468-.182h2.366c.26 0 .451.06.572.182.121.121.199.217.234.286l6.942 10.842V1.45c0-.19.061-.347.182-.468a.602.602 0 0 1 .442-.182h2.652c.191 0 .347.06.468.182a.635.635 0 0 1 .182.468v16.9c0 .173-.061.33-.182.468a.633.633 0 0 1-.468.182h-2.392c-.26 0-.451-.06-.572-.182a2.98 2.98 0 0 0-.234-.286l-6.916-10.504V18.35c0 .19-.061.347-.182.468a.633.633 0 0 1-.468.182h-2.626Zm19.315 0a.636.636 0 0 1-.468-.182.635.635 0 0 1-.182-.468V1.45c0-.19.061-.347.182-.468a.636.636 0 0 1 .468-.182h11.778c.191 0 .347.06.468.182a.63.63 0 0 1 .182.468v2.08a.6.6 0 0 1-.182.442.632.632 0 0 1-.468.182h-8.424v4.082h7.852c.191 0 .347.06.468.182a.63.63 0 0 1 .182.468v1.924a.6.6 0 0 1-.182.442.633.633 0 0 1-.468.182h-7.852v4.212h8.632c.191 0 .347.06.468.182a.63.63 0 0 1 .182.468v2.054a.63.63 0 0 1-.182.468.633.633 0 0 1-.468.182h-11.986Z"/></svg>