<svg fill="none" xmlns="http://www.w3.org/2000/svg" viewBox="0 0 19 13"><path d="M1.423.5C1.15.5.9.582.687.716L8.88 7.647a.945.945 0 0 0 1.254 0l8.179-6.93A1.373 1.373 0 0 0 17.577.5H1.423Zm-1.305.93c-.05.143-.08.295-.08.455v9.23c0 .278.084.534.224.75l5.863-5.343L.118 1.43Zm18.764 0L12.89 6.515l5.85 5.35c.14-.216.223-.471.223-.75v-9.23c0-.16-.03-.312-.08-.454Zm-6.7 5.69-1.456 1.233a1.892 1.892 0 0 1-2.445 0l-1.45-1.226-5.82 5.308c.131.04.268.065.412.065h16.154c.144 0 .28-.025.411-.065L12.183 7.12Z" fill="#fff"/></svg>