<svg xmlns="http://www.w3.org/2000/svg" width="12" height="16" fill="none"><path fill="#000" d="M.628 9.3c.2-.2.441-.296.725-.288.283.009.525.113.725.313l2.825 2.825V1c0-.283.096-.521.288-.713A.967.967 0 0 1 5.903 0a.97.97 0 0 1 .713.287.97.97 0 0 1 .287.713v11.15l2.85-2.85c.2-.2.437-.3.713-.3.274 0 .511.1.712.3.2.2.3.438.3.713 0 .275-.1.512-.3.712L6.603 15.3c-.1.1-.209.171-.325.213a1.116 1.116 0 0 1-.375.062c-.134 0-.259-.02-.375-.062a.883.883 0 0 1-.325-.213l-4.6-4.6a.932.932 0 0 1-.275-.687c0-.275.1-.513.3-.713Z"/></svg>